<svg>
	<!-- Moon icon -->
	<symbol id="moonIcon" xmlns="http://www.w3.org/2000/svg" width="22" height="22" fill="none" viewBox="0 0 22 22">
		<g clip-path="url(#a)">
			<path stroke="#091540" stroke-linecap="round" stroke-linejoin="round" stroke-width="1.98" d="M20.125 11.877A7.333 7.333 0 1 1 10.124 1.875a9.168 9.168 0 1 0 10.001 10.002Z" />
		</g>
		<defs>
			<clipPath id="a">
				<path fill="#fff" d="M0 0h22v22H0z" />
			</clipPath>
		</defs>
	</symbol>
	<!-- Sun icon -->
	<symbol id="sunIcon" xmlns="http://www.w3.org/2000/svg" width="22" height="22" fill="none" viewBox="0 0 22 22">
		<g clip-path="url(#a)">
			<path stroke="#FBFDFE" stroke-linecap="round" stroke-linejoin="round" stroke-width="1.98" d="M11 1.833v1.834m0 14.666v1.834M3.667 11H1.833m3.955-5.212L4.492 4.492m11.72 1.296 1.297-1.296M5.788 16.215l-1.296 1.296m11.72-1.296 1.297 1.296M20.167 11h-1.834m-2.75 0a4.583 4.583 0 1 1-9.167 0 4.583 4.583 0 0 1 9.167 0Z" />
		</g>
		<defs>
			<clipPath id="a">
				<path fill="#fff" d="M0 0h22v22H0z" />
			</clipPath>
		</defs>
	</symbol>
	<!-- logo icon -->
	<symbol id="logoIcon" xmlns="http://www.w3.org/2000/svg" width="179" height="41" fill="none" viewBox="0 0 179 41">
		<g clip-path="url(#a)">
			<path fill="#C7231A" fill-rule="evenodd" d="M13.715.516c-2.257 0-4.42.896-6.016 2.492L0 10.707v3.524c0 2.49 1.07 4.73 2.774 6.285A8.485 8.485 0 0 0 0 26.802v3.524l7.699 7.698A8.507 8.507 0 0 0 20 37.742a8.508 8.508 0 0 0 12.301.282L40 30.326v-3.524c0-2.49-1.07-4.73-2.774-6.286A8.485 8.485 0 0 0 40 14.231v-3.524l-7.699-7.7A8.508 8.508 0 0 0 20 3.29 8.485 8.485 0 0 0 13.715.516Zm12.044 20a8.528 8.528 0 0 1-.282-.27L20 14.77l-5.477 5.477a8.528 8.528 0 0 1-.282.27c.096.087.19.177.282.269L20 26.262l5.477-5.476c.092-.093.186-.182.282-.27Zm-3.537 9.81v1.682a4.063 4.063 0 0 0 6.936 2.874l6.398-6.397v-1.683a4.063 4.063 0 0 0-6.937-2.874l-6.397 6.398Zm-4.444 0-6.397-6.398a4.063 4.063 0 0 0-6.937 2.873v1.684l6.397 6.397a4.063 4.063 0 0 0 6.937-2.873v-1.683Zm0-21.302v1.683l-6.397 6.397a4.063 4.063 0 0 1-6.937-2.873v-1.683l6.397-6.397a4.063 4.063 0 0 1 6.937 2.873Zm10.841 8.08-6.397-6.397V9.024a4.063 4.063 0 0 1 6.936-2.873l6.398 6.397v1.683a4.063 4.063 0 0 1-6.937 2.873Z" clip-rule="evenodd" />
		</g>
		<path id="textLogo" fill="currentColor" d="M54.318 29V12.2h11.484v3.096H57.87v3.6h6.72v2.868h-6.72v4.104h8.028V29h-11.58Zm12.818.024 4.368-6.036-4.14-6.108h4.428l2.148 3.684 2.088-3.684h4.32l-4.02 6.036L80.66 29h-4.488l-2.352-3.696-2.388 3.66-4.296.06Zm20.293.336c-1.296 0-2.32-.364-3.072-1.092-.744-.736-1.116-1.844-1.116-3.324V13.388h3.504v3.492h3.012v2.808h-3.012v4.62c0 .712.148 1.212.444 1.5.296.288.692.432 1.188.432.256 0 .504-.028.744-.084.248-.064.476-.152.684-.264l.492 2.76c-.36.2-.792.368-1.296.504a5.92 5.92 0 0 1-1.572.204Zm-6.648-9.672V16.88h2.808v2.808H80.78Zm17.126 9.672c-1.32 0-2.48-.268-3.48-.804a5.853 5.853 0 0 1-2.34-2.244c-.56-.96-.84-2.084-.84-3.372 0-.936.16-1.796.48-2.58a6.052 6.052 0 0 1 1.368-2.028A6.203 6.203 0 0 1 95.171 17c.8-.32 1.676-.48 2.628-.48 1.048 0 1.976.184 2.784.552a5.43 5.43 0 0 1 2.028 1.548c.536.656.908 1.428 1.116 2.316.216.888.236 1.852.06 2.892h-9.288c0 .56.144 1.048.432 1.464.296.416.708.744 1.236.984.536.232 1.16.348 1.872.348.704 0 1.376-.096 2.016-.288a6.426 6.426 0 0 0 1.812-.876l1.164 2.4c-.384.296-.864.56-1.44.792-.576.224-1.188.396-1.836.516a9.422 9.422 0 0 1-1.848.192Zm-3.204-7.944h5.724c-.024-.712-.276-1.276-.756-1.692-.472-.416-1.124-.624-1.956-.624-.832 0-1.524.208-2.076.624-.544.416-.856.98-.936 1.692ZM105.83 29V16.88h3.504v1.368c.464-.608 1.012-1.048 1.644-1.32a5.072 5.072 0 0 1 2.004-.408c1.128 0 2.056.224 2.784.672.736.44 1.28 1.012 1.632 1.716.36.704.54 1.444.54 2.22V29h-3.504v-6.78c0-.768-.216-1.38-.648-1.836-.424-.456-1.04-.684-1.848-.684-.512 0-.964.116-1.356.348-.392.224-.7.54-.924.948-.216.408-.324.88-.324 1.416V29h-3.504Zm19.29.348c-1.08 0-2.076-.14-2.988-.42-.912-.288-1.692-.68-2.34-1.176l1.14-2.448a8.333 8.333 0 0 0 2.052 1.02c.736.24 1.444.36 2.124.36.672 0 1.188-.1 1.548-.3.368-.208.552-.504.552-.888 0-.344-.164-.596-.492-.756-.32-.168-.944-.348-1.872-.54-1.6-.288-2.768-.74-3.504-1.356-.736-.624-1.104-1.48-1.104-2.568 0-.768.212-1.444.636-2.028.432-.584 1.024-1.036 1.776-1.356.752-.328 1.616-.492 2.592-.492.96 0 1.864.132 2.712.396.856.256 1.588.616 2.196 1.08l-1.104 2.46a5.34 5.34 0 0 0-1.104-.672 6.35 6.35 0 0 0-1.296-.444 5.43 5.43 0 0 0-1.32-.168c-.584 0-1.056.1-1.416.3-.36.192-.54.464-.54.816 0 .352.164.612.492.78.328.168.94.352 1.836.552 1.672.352 2.86.82 3.564 1.404.712.576 1.068 1.388 1.068 2.436 0 .808-.22 1.512-.66 2.112-.432.6-1.04 1.068-1.824 1.404-.776.328-1.684.492-2.724.492Zm7.413-.348V16.88h3.504V29h-3.504Zm1.752-14.04a2.26 2.26 0 0 1-1.512-.54c-.424-.368-.636-.856-.636-1.464 0-.616.212-1.104.636-1.464a2.23 2.23 0 0 1 1.512-.552 2.23 2.23 0 0 1 1.512.552c.424.36.636.848.636 1.464 0 .608-.212 1.096-.636 1.464a2.26 2.26 0 0 1-1.512.54Zm10.362 14.4c-1.304 0-2.46-.292-3.468-.876a6.504 6.504 0 0 1-2.376-2.328 6.28 6.28 0 0 1-.852-3.216c0-.856.164-1.668.492-2.436a6.302 6.302 0 0 1 1.392-2.052c.6-.6 1.308-1.072 2.124-1.416.816-.344 1.712-.516 2.688-.516 1.304 0 2.456.292 3.456.876a6.38 6.38 0 0 1 2.364 2.34c.576.968.864 2.036.864 3.204 0 .848-.164 1.66-.492 2.436a6.439 6.439 0 0 1-1.392 2.064 6.547 6.547 0 0 1-2.112 1.404c-.816.344-1.712.516-2.688.516Zm0-3.036c.616 0 1.168-.136 1.656-.408.488-.28.872-.672 1.152-1.176.28-.512.42-1.112.42-1.8 0-.696-.14-1.296-.42-1.8a2.854 2.854 0 0 0-1.14-1.164c-.488-.28-1.044-.42-1.668-.42-.624 0-1.184.14-1.68.42-.488.272-.872.66-1.152 1.164-.272.504-.408 1.104-.408 1.8s.14 1.296.42 1.8c.28.504.664.896 1.152 1.176.488.272 1.044.408 1.668.408ZM153.235 29V16.88h3.504v1.368c.464-.608 1.012-1.048 1.644-1.32a5.072 5.072 0 0 1 2.004-.408c1.128 0 2.056.224 2.784.672.736.44 1.28 1.012 1.632 1.716.36.704.54 1.444.54 2.22V29h-3.504v-6.78c0-.768-.216-1.38-.648-1.836-.424-.456-1.04-.684-1.848-.684-.512 0-.964.116-1.356.348-.392.224-.7.54-.924.948-.216.408-.324.88-.324 1.416V29h-3.504Zm19.291.348c-1.08 0-2.076-.14-2.988-.42-.912-.288-1.692-.68-2.34-1.176l1.14-2.448a8.333 8.333 0 0 0 2.052 1.02c.736.24 1.444.36 2.124.36.672 0 1.188-.1 1.548-.3.368-.208.552-.504.552-.888 0-.344-.164-.596-.492-.756-.32-.168-.944-.348-1.872-.54-1.6-.288-2.768-.74-3.504-1.356-.736-.624-1.104-1.48-1.104-2.568 0-.768.212-1.444.636-2.028.432-.584 1.024-1.036 1.776-1.356.752-.328 1.616-.492 2.592-.492.96 0 1.864.132 2.712.396.856.256 1.588.616 2.196 1.08l-1.104 2.46a5.34 5.34 0 0 0-1.104-.672 6.35 6.35 0 0 0-1.296-.444 5.43 5.43 0 0 0-1.32-.168c-.584 0-1.056.1-1.416.3-.36.192-.54.464-.54.816 0 .352.164.612.492.78.328.168.94.352 1.836.552 1.672.352 2.86.82 3.564 1.404.712.576 1.068 1.388 1.068 2.436 0 .808-.22 1.512-.66 2.112-.432.6-1.04 1.068-1.824 1.404-.776.328-1.684.492-2.724.492Z" />
		<defs>
			<clipPath id="a">
				<path fill="#fff" d="M0 0h40v41H0z" />
			</clipPath>
		</defs>
	</symbol>

	<!-- DevLens icon -->
	<symbol id="devlensIcon" xmlns="http://www.w3.org/2000/svg" width="60" height="60" fill="none" viewBox="0 0 60 60">
		<path fill="#BFD8BD" d="M0 10C0 4.477 4.477 0 10 0h40c5.523 0 10 4.477 10 10v40c0 5.523-4.477 10-10 10H10C4.477 60 0 55.523 0 50V10Z"/>
		<path fill="#091540" fill-rule="evenodd" d="M23.675 15.75c-2.39 0-4.39.851-5.789 2.352-1.393 1.494-2.135 3.573-2.135 5.937v1.074h28.498V24.04c0-2.363-.737-4.442-2.129-5.937-1.397-1.501-3.397-2.352-5.794-2.352h-12.65Zm-2.24 4.951a1.125 1.125 0 0 0 0 2.25h.082a1.125 1.125 0 0 0 0-2.25h-.083Zm3.728 0a1.125 1.125 0 0 0 0 2.25h.083a1.125 1.125 0 0 0 0-2.25h-.083Zm3.73 0a1.125 1.125 0 0 0 0 2.25h.082a1.125 1.125 0 0 0 0-2.25h-.083Z" clip-rule="evenodd"/>
		<path fill="#091540" d="M29.49 32.25a2.821 2.821 0 1 0 0 5.642 2.821 2.821 0 0 0 0-5.642Z"/>
		<path fill="#091540" fill-rule="evenodd" d="M15.75 35.96v-8.597h28.5v8.596c0 2.364-.738 4.443-2.13 5.938-1.398 1.5-3.398 2.352-5.795 2.352h-12.65c-2.396 0-4.397-.852-5.794-2.352-1.392-1.495-2.13-3.574-2.13-5.938Zm8.669-.889a5.071 5.071 0 1 1 9.324 2.763l1.509 1.509a1.125 1.125 0 1 1-1.591 1.59l-1.532-1.531a5.071 5.071 0 0 1-7.71-4.33Z" clip-rule="evenodd"/>
	</symbol>

	<!-- StyleSpy icon -->
	<symbol id="stylespyIcon" xmlns="http://www.w3.org/2000/svg" width="60" height="60" fill="none" viewBox="0 0 60 60">
		<path fill="#A9D6E5" d="M0 10C0 4.477 4.477 0 10 0h40c5.523 0 10 4.477 10 10v40c0 5.523-4.477 10-10 10H10C4.477 60 0 55.523 0 50V10Z"/>
		<path fill="#091540" fill-rule="evenodd" d="M19.32 19.197C20.633 17.788 22.502 17 24.71 17h11.246c2.212 0 4.082.788 5.394 2.197 1.305 1.4 1.983 3.335 1.983 5.505v10.596c0 2.17-.678 4.104-1.983 5.505C40.038 42.213 38.167 43 35.955 43H24.71c-2.213 0-4.083-.788-5.395-2.197-1.304-1.401-1.982-3.335-1.982-5.505V24.702c0-2.171.682-4.105 1.987-5.506Zm1.463 1.363c-.903.969-1.45 2.386-1.45 4.142v10.596c0 1.757.545 3.174 1.446 4.142.894.96 2.212 1.56 3.93 1.56h11.246c1.718 0 3.038-.6 3.932-1.56.901-.968 1.446-2.385 1.446-4.142V24.702c0-1.757-.545-3.174-1.446-4.142-.894-.96-2.213-1.56-3.931-1.56H24.709c-1.711 0-3.03.6-3.926 1.56Z" clip-rule="evenodd"/>
		<path fill="#091540" fill-rule="evenodd" d="M23.685 24.188a1 1 0 0 1 1-1h2.644a1 1 0 1 1 0 2h-1.644v9.631h1.644a1 1 0 1 1 0 2h-2.644a1 1 0 0 1-1-1V24.187ZM32.339 24.188a1 1 0 0 1 1-1h2.644a1 1 0 0 1 1 1v11.631a1 1 0 0 1-1 1h-2.644a1 1 0 0 1 0-2h1.644v-9.632h-1.644a1 1 0 0 1-1-1Z" clip-rule="evenodd"/>
	</symbol>

	<!-- SpeedBoost icon -->
	<symbol id="speedboostIcon" xmlns="http://www.w3.org/2000/svg" width="60" height="60" fill="none" viewBox="0 0 60 60">
		<path fill="#FFCFD2" d="M0 10C0 4.477 4.477 0 10 0h40c5.523 0 10 4.477 10 10v40c0 5.523-4.477 10-10 10H10C4.477 60 0 55.523 0 50V10Z"/>
		<path fill="#091540" fill-rule="evenodd" d="m35.532 28.321-3.92 3.92a.967.967 0 0 1-.706.294.989.989 0 0 1-.707-.294 1.006 1.006 0 0 1 0-1.413l3.92-3.92a1.006 1.006 0 0 1 1.413 0c.4.387.4 1.027 0 1.413Zm-4.613-7.626c-6 0-10.88 4.88-10.88 10.88 0 .136.003.273.008.407a.396.396 0 0 0 .398.38h4.474a2.658 2.658 0 0 1 2.659 2.862c-.022.266.168.524.435.524h.226a2.666 2.666 0 0 1 2.583 3.323c-.059.23.1.477.337.477a2.66 2.66 0 0 1 2.58 2.018c.06.247.305.425.547.346 4.357-1.417 7.513-5.51 7.513-10.337 0-6-4.88-10.88-10.88-10.88ZM28.122 18.786h5.611a1 1 0 0 0 0-2h-5.61a1 1 0 0 0 0 2Z" clip-rule="evenodd"/>
		<path fill="#091540" fill-rule="evenodd" d="M29.233 38.413a1 1 0 0 0-1-1h-5.721a1 1 0 0 0 0 2h5.721a1 1 0 0 0 1-1ZM31.152 41.214h-5.721a1 1 0 0 0 0 2h5.721a1 1 0 0 0 0-2ZM25.924 35.026a1 1 0 0 0-1-1H19.2a1 1 0 0 0 0 2h5.723a1 1 0 0 0 1-1Z" clip-rule="evenodd"/>
	</symbol>

	<!-- JSONWizard icon -->
	<symbol id="jsonwizardIcon" xmlns="http://www.w3.org/2000/svg" width="60" height="60" fill="none" viewBox="0 0 60 60">
		<path fill="#F1C0E8" d="M0 10C0 4.477 4.477 0 10 0h40c5.523 0 10 4.477 10 10v40c0 5.523-4.477 10-10 10H10C4.477 60 0 55.523 0 50V10Z"/>
		<path stroke="#091540" stroke-linecap="round" stroke-linejoin="round" stroke-width="2.333" d="M36.553 16.008c4.58 0 7.447 3.23 7.447 7.81V36.18c0 4.58-2.867 7.812-7.447 7.812H23.432c-4.58 0-7.432-3.232-7.432-7.812V23.818c0-4.58 2.867-7.81 7.432-7.81h6.876m-7.241 27.97 9.54-10.843a3.176 3.176 0 0 0-.287-4.492l-1.729-1.515a3.18 3.18 0 0 0-4.506.272l-2.123 2.411-7.69 8.707m10.934-5.848 3.246 2.86m6.835-8.508v-.06m-2.083 10.606v.06m-13.25-14.86v-.06m14.621-.241v-.061"/>
	</symbol>

	<!-- TabMaster Pro icon -->
	<symbol id="tabmasterproIcon" xmlns="http://www.w3.org/2000/svg" width="60" height="60" fill="none" viewBox="0 0 60 60">
		<path fill="#CFE1FF" d="M0 10C0 4.477 4.477 0 10 0h40c5.523 0 10 4.477 10 10v40c0 5.523-4.477 10-10 10H10C4.477 60 0 55.523 0 50V10Z"/>
		<path fill="#091540" fill-rule="evenodd" d="M17.714 15.75c-1.067 0-1.929.862-1.929 1.929v6.21c0 1.067.862 1.93 1.929 1.93h24.572c1.067 0 1.929-.863 1.929-1.93v-6.21c0-1.067-.862-1.929-1.929-1.929H17.714Zm1.072 2.143v4.928h2.142v-4.928h-2.142Zm17.142 0v4.928h5.357v-4.928h-5.357Zm-8.57 0v4.928h5.356v-4.928h-5.356Zm-3.215 0v4.928h2.143v-4.928h-2.143Z" clip-rule="evenodd"/>
		<path fill="#091540" d="M17.714 28.286c-1.067 0-1.929.862-1.929 1.929v13.07c0 1.068.862 1.93 1.929 1.93h24.572c1.067 0 1.929-.862 1.929-1.93v-13.07c0-1.067-.862-1.929-1.929-1.929H17.714Z"/>
		<path fill="#C2BFFF" d="M18.786 31.5v10.714h3.214V31.5h-3.214Zm12.857 0v10.714h3.214V31.5h-3.214Zm-6.429 0v10.714h3.215V31.5h-3.215Zm12.857 0v10.714h3.215V31.5h-3.215Z"/>
	</symbol>

	<!-- ViewportBuddy icon -->
	<symbol id="viewportbuddyIcon" xmlns="http://www.w3.org/2000/svg" width="60" height="60" fill="none" viewBox="0 0 60 60">
		<path fill="#CAFFBF" d="M0 10C0 4.477 4.477 0 10 0h40c5.523 0 10 4.477 10 10v40c0 5.523-4.477 10-10 10H10C4.477 60 0 55.523 0 50V10Z"/>
		<path fill="#091540" fill-rule="evenodd" d="M16 17.25c-.966 0-1.75.784-1.75 1.75v22c0 .966.784 1.75 1.75 1.75h28c.966 0 1.75-.784 1.75-1.75V19c0-.966-.784-1.75-1.75-1.75H16Zm1.5 3v18.5h25V20.25h-25Z" clip-rule="evenodd"/>
		<path fill="#091540" d="M19.5 22.75v2h2v-2h-2Zm4 0v2h2v-2h-2Zm4 0v2h2v-2h-2Z"/>
	</symbol>

	<!-- Markup Notes icon -->
	<symbol id="markupnotesIcon" xmlns="http://www.w3.org/2000/svg" width="60" height="60" fill="none" viewBox="0 0 60 60">
		<path fill="#FFDFBA" d="M0 10C0 4.477 4.477 0 10 0h40c5.523 0 10 4.477 10 10v40c0 5.523-4.477 10-10 10H10C4.477 60 0 55.523 0 50V10Z"/>
		<path fill="#091540" fill-rule="evenodd" d="M17.5 15.625c-1.381 0-2.5 1.119-2.5 2.5v23.75c0 1.381 1.119 2.5 2.5 2.5h25c1.381 0 2.5-1.119 2.5-2.5V18.125c0-1.381-1.119-2.5-2.5-2.5h-25Zm2.5 5v2.5h5v-2.5h-5Zm0 5v2.5h20v-2.5H20Zm0 5v2.5h15v-2.5H20Zm0 5v2.5h12.5v-2.5H20Z" clip-rule="evenodd"/>
	</symbol>

	<!-- GridGuides icon -->
	<symbol id="gridguidesIcon" xmlns="http://www.w3.org/2000/svg" width="60" height="60" fill="none" viewBox="0 0 60 60">
		<path fill="#B9FBC0" d="M0 10C0 4.477 4.477 0 10 0h40c5.523 0 10 4.477 10 10v40c0 5.523-4.477 10-10 10H10C4.477 60 0 55.523 0 50V10Z"/>
		<path fill="#091540" fill-rule="evenodd" d="M15 15v30h30V15H15Zm5 5h5v5h-5v-5Zm10 0h5v5h-5v-5Zm10 0h5v5h-5v-5ZM20 30h5v5h-5v-5Zm10 0h5v5h-5v-5Zm10 0h5v5h-5v-5ZM20 40h5v-5h-5v5Zm10 0h5v-5h-5v5Zm10 0h5v-5h-5v5Z" clip-rule="evenodd"/>
	</symbol>

	<!-- Palette Picker icon -->
	<symbol id="palettepickerIcon" xmlns="http://www.w3.org/2000/svg" width="60" height="60" fill="none" viewBox="0 0 60 60">
		<path fill="#FDE68A" d="M0 10C0 4.477 4.477 0 10 0h40c5.523 0 10 4.477 10 10v40c0 5.523-4.477 10-10 10H10C4.477 60 0 55.523 0 50V10Z"/>
		<path fill="#091540" fill-rule="evenodd" d="M30 15C21.716 15 15 21.716 15 30s6.716 15 15 15c1.381 0 2.5-1.119 2.5-2.5 0-.662-.259-1.294-.721-1.768-.45-.462-.721-1.1-.721-1.732 0-1.381 1.119-2.5 2.5-2.5h2.942c4.694 0 8.5-3.806 8.5-8.5C45 21.716 38.284 15 30 15Zm-7.5 12.5a2.5 2.5 0 1 1-5 0 2.5 2.5 0 0 1 5 0Zm2.5-5a2.5 2.5 0 1 0 0-5 2.5 2.5 0 0 0 0 5Zm10 0a2.5 2.5 0 1 0 0-5 2.5 2.5 0 0 0 0 5Zm2.5 5a2.5 2.5 0 1 1-5 0 2.5 2.5 0 0 1 5 0Z" clip-rule="evenodd"/>
	</symbol>

	<!-- LinkChecker icon -->
	<symbol id="linkcheckerIcon" xmlns="http://www.w3.org/2000/svg" width="60" height="60" fill="none" viewBox="0 0 60 60">
		<path fill="#DDD6FE" d="M0 10C0 4.477 4.477 0 10 0h40c5.523 0 10 4.477 10 10v40c0 5.523-4.477 10-10 10H10C4.477 60 0 55.523 0 50V10Z"/>
		<path fill="#091540" fill-rule="evenodd" d="M28.125 21.875c-1.726 0-3.125 1.399-3.125 3.125v3.75a1.25 1.25 0 1 1-2.5 0V25c0-3.106 2.519-5.625 5.625-5.625h6.25c3.106 0 5.625 2.519 5.625 5.625v10c0 3.106-2.519 5.625-5.625 5.625h-3.75a1.25 1.25 0 1 1 0-2.5H34.375c1.726 0 3.125-1.399 3.125-3.125V25c0-1.726-1.399-3.125-3.125-3.125h-6.25Z" clip-rule="evenodd"/>
		<path fill="#091540" fill-rule="evenodd" d="M31.875 38.125c1.726 0 3.125-1.399 3.125-3.125v-3.75a1.25 1.25 0 1 1 2.5 0V35c0 3.106-2.519 5.625-5.625 5.625h-6.25c-3.106 0-5.625-2.519-5.625-5.625V25c0-3.106 2.519-5.625 5.625-5.625h3.75a1.25 1.25 0 1 1 0 2.5h-3.75c-1.726 0-3.125 1.399-3.125 3.125v10c0 1.726 1.399 3.125 3.125 3.125h6.25Z" clip-rule="evenodd"/>
	</symbol>

	<!-- DOM Snapshot icon -->
	<symbol id="domsnapshotIcon" xmlns="http://www.w3.org/2000/svg" width="60" height="60" fill="none" viewBox="0 0 60 60">
		<path fill="#FCE4EC" d="M0 10C0 4.477 4.477 0 10 0h40c5.523 0 10 4.477 10 10v40c0 5.523-4.477 10-10 10H10C4.477 60 0 55.523 0 50V10Z"/>
		<path fill="#091540" fill-rule="evenodd" d="M17.5 15c-.828 0-1.5.672-1.5 1.5v27c0 .828.672 1.5 1.5 1.5h25c.828 0 1.5-.672 1.5-1.5v-27c0-.828-.672-1.5-1.5-1.5h-25Zm3 6v18h19V21H20.5Z" clip-rule="evenodd"/>
		<path fill="#091540" d="M22.5 23v2h15v-2h-15Zm0 4v2h12v-2h-12Zm0 4v2h9v-2h-9Zm0 4v2h15v-2h-15Z"/>
	</symbol>

	<!-- ConsolePlus icon -->
	<symbol id="consoleplusIcon" xmlns="http://www.w3.org/2000/svg" width="60" height="60" fill="none" viewBox="0 0 60 60">
		<path fill="#E5E7EB" d="M0 10C0 4.477 4.477 0 10 0h40c5.523 0 10 4.477 10 10v40c0 5.523-4.477 10-10 10H10C4.477 60 0 55.523 0 50V10Z"/>
		<path fill="#091540" fill-rule="evenodd" d="M15 17.5c0-.828.672-1.5 1.5-1.5h27c.828 0 1.5.672 1.5 1.5v25c0 .828-.672 1.5-1.5 1.5h-27c-.828 0-1.5-.672-1.5-1.5v-25ZM18 19v22h24V19H18Z" clip-rule="evenodd"/>
		<path fill="#091540" d="m20 23 3 2-3 2v-4Zm5 4h8v-2h-8v2Z"/>
	</symbol>
</svg>
